<svg width="20" height="20" viewBox="0 0 20 20" fill="none" xmlns="http://www.w3.org/2000/svg">
<path d="M10.0001 5.00008C9.77907 5.00008 9.56711 5.08788 9.41083 5.24416C9.25455 5.40044 9.16675 5.6124 9.16675 5.83341V14.1667C9.16675 14.3878 9.25455 14.5997 9.41083 14.756C9.56711 14.9123 9.77907 15.0001 10.0001 15.0001C10.2211 15.0001 10.4331 14.9123 10.5893 14.756C10.7456 14.5997 10.8334 14.3878 10.8334 14.1667V5.83341C10.8334 5.6124 10.7456 5.40044 10.5893 5.24416C10.4331 5.08788 10.2211 5.00008 10.0001 5.00008ZM5.83341 10.0001C5.6124 10.0001 5.40044 10.0879 5.24416 10.2442C5.08788 10.4004 5.00008 10.6124 5.00008 10.8334V14.1667C5.00008 14.3878 5.08788 14.5997 5.24416 14.756C5.40044 14.9123 5.6124 15.0001 5.83341 15.0001C6.05443 15.0001 6.26639 14.9123 6.42267 14.756C6.57895 14.5997 6.66675 14.3878 6.66675 14.1667V10.8334C6.66675 10.6124 6.57895 10.4004 6.42267 10.2442C6.26639 10.0879 6.05443 10.0001 5.83341 10.0001ZM14.1667 8.33341C13.9457 8.33341 13.7338 8.42121 13.5775 8.57749C13.4212 8.73377 13.3334 8.94573 13.3334 9.16675V14.1667C13.3334 14.3878 13.4212 14.5997 13.5775 14.756C13.7338 14.9123 13.9457 15.0001 14.1667 15.0001C14.3878 15.0001 14.5997 14.9123 14.756 14.756C14.9123 14.5997 15.0001 14.3878 15.0001 14.1667V9.16675C15.0001 8.94573 14.9123 8.73377 14.756 8.57749C14.5997 8.42121 14.3878 8.33341 14.1667 8.33341ZM15.8334 1.66675H4.16675C3.50371 1.66675 2.86782 1.93014 2.39898 2.39898C1.93014 2.86782 1.66675 3.50371 1.66675 4.16675V15.8334C1.66675 16.4965 1.93014 17.1323 2.39898 17.6012C2.86782 18.07 3.50371 18.3334 4.16675 18.3334H15.8334C16.4965 18.3334 17.1323 18.07 17.6012 17.6012C18.07 17.1323 18.3334 16.4965 18.3334 15.8334V4.16675C18.3334 3.50371 18.07 2.86782 17.6012 2.39898C17.1323 1.93014 16.4965 1.66675 15.8334 1.66675ZM16.6667 15.8334C16.6667 16.0544 16.579 16.2664 16.4227 16.4227C16.2664 16.579 16.0544 16.6667 15.8334 16.6667H4.16675C3.94573 16.6667 3.73377 16.579 3.57749 16.4227C3.42121 16.2664 3.33341 16.0544 3.33341 15.8334V4.16675C3.33341 3.94573 3.42121 3.73377 3.57749 3.57749C3.73377 3.42121 3.94573 3.33341 4.16675 3.33341H15.8334C16.0544 3.33341 16.2664 3.42121 16.4227 3.57749C16.579 3.73377 16.6667 3.94573 16.6667 4.16675V15.8334Z" fill="#101828"/>
</svg>
