<svg width="32" height="32" viewBox="0 0 32 32" fill="none" xmlns="http://www.w3.org/2000/svg">
<path d="M20.0001 14.6666H17.3334V9.33329C17.3334 8.97967 17.1929 8.64053 16.9429 8.39048C16.6928 8.14044 16.3537 7.99996 16.0001 7.99996C15.6465 7.99996 15.3073 8.14044 15.0573 8.39048C14.8072 8.64053 14.6668 8.97967 14.6668 9.33329V16C14.6668 16.3536 14.8072 16.6927 15.0573 16.9428C15.3073 17.1928 15.6465 17.3333 16.0001 17.3333H20.0001C20.3537 17.3333 20.6928 17.1928 20.9429 16.9428C21.1929 16.6927 21.3334 16.3536 21.3334 16C21.3334 15.6463 21.1929 15.3072 20.9429 15.0572C20.6928 14.8071 20.3537 14.6666 20.0001 14.6666ZM16.0001 2.66663C13.363 2.66663 10.7851 3.44861 8.59248 4.9137C6.39983 6.37878 4.69086 8.46117 3.68169 10.8975C2.67253 13.3339 2.40848 16.0148 2.92295 18.6012C3.43742 21.1876 4.7073 23.5634 6.572 25.4281C8.4367 27.2928 10.8125 28.5626 13.3989 29.0771C15.9853 29.5916 18.6662 29.3275 21.1025 28.3184C23.5389 27.3092 25.6213 25.6002 27.0863 23.4076C28.5514 21.2149 29.3334 18.637 29.3334 16C29.3334 14.249 28.9885 12.5152 28.3185 10.8975C27.6484 9.27984 26.6663 7.80998 25.4282 6.57187C24.1901 5.33375 22.7202 4.35163 21.1025 3.68157C19.4849 3.0115 17.751 2.66663 16.0001 2.66663V2.66663ZM16.0001 26.6666C13.8904 26.6666 11.8281 26.041 10.074 24.869C8.31988 23.6969 6.95271 22.031 6.14537 20.0819C5.33804 18.1328 5.1268 15.9881 5.53838 13.919C5.94995 11.8499 6.96585 9.94925 8.45762 8.45749C9.94938 6.96573 11.85 5.94983 13.9191 5.53825C15.9883 5.12667 18.133 5.33791 20.082 6.14524C22.0311 6.95258 23.697 8.31975 24.8691 10.0739C26.0412 11.828 26.6668 13.8903 26.6668 16C26.6668 18.8289 25.5429 21.542 23.5426 23.5424C21.5422 25.5428 18.8291 26.6666 16.0001 26.6666V26.6666Z" fill="white"/>
</svg>
