<svg width="20" height="20" viewBox="0 0 20 20" fill="none" xmlns="http://www.w3.org/2000/svg">
<path d="M15.8334 3.33341H14.1667V2.50008C14.1667 2.27907 14.079 2.06711 13.9227 1.91083C13.7664 1.75455 13.5544 1.66675 13.3334 1.66675C13.1124 1.66675 12.9004 1.75455 12.7442 1.91083C12.5879 2.06711 12.5001 2.27907 12.5001 2.50008V3.33341H7.50008V2.50008C7.50008 2.27907 7.41228 2.06711 7.256 1.91083C7.09972 1.75455 6.88776 1.66675 6.66675 1.66675C6.44573 1.66675 6.23377 1.75455 6.07749 1.91083C5.92121 2.06711 5.83341 2.27907 5.83341 2.50008V3.33341H4.16675C3.50371 3.33341 2.86782 3.59681 2.39898 4.06565C1.93014 4.53449 1.66675 5.17037 1.66675 5.83341V15.8334C1.66675 16.4965 1.93014 17.1323 2.39898 17.6012C2.86782 18.07 3.50371 18.3334 4.16675 18.3334H15.8334C16.4965 18.3334 17.1323 18.07 17.6012 17.6012C18.07 17.1323 18.3334 16.4965 18.3334 15.8334V5.83341C18.3334 5.17037 18.07 4.53449 17.6012 4.06565C17.1323 3.59681 16.4965 3.33341 15.8334 3.33341ZM16.6667 15.8334C16.6667 16.0544 16.579 16.2664 16.4227 16.4227C16.2664 16.579 16.0544 16.6667 15.8334 16.6667H4.16675C3.94573 16.6667 3.73377 16.579 3.57749 16.4227C3.42121 16.2664 3.33341 16.0544 3.33341 15.8334V10.0001H16.6667V15.8334ZM16.6667 8.33341H3.33341V5.83341C3.33341 5.6124 3.42121 5.40044 3.57749 5.24416C3.73377 5.08788 3.94573 5.00008 4.16675 5.00008H5.83341V5.83341C5.83341 6.05443 5.92121 6.26639 6.07749 6.42267C6.23377 6.57895 6.44573 6.66675 6.66675 6.66675C6.88776 6.66675 7.09972 6.57895 7.256 6.42267C7.41228 6.26639 7.50008 6.05443 7.50008 5.83341V5.00008H12.5001V5.83341C12.5001 6.05443 12.5879 6.26639 12.7442 6.42267C12.9004 6.57895 13.1124 6.66675 13.3334 6.66675C13.5544 6.66675 13.7664 6.57895 13.9227 6.42267C14.079 6.26639 14.1667 6.05443 14.1667 5.83341V5.00008H15.8334C16.0544 5.00008 16.2664 5.08788 16.4227 5.24416C16.579 5.40044 16.6667 5.6124 16.6667 5.83341V8.33341Z" fill="#101828"/>
</svg>
