<svg width="26" height="28" viewBox="0 0 26 28" fill="none" xmlns="http://www.w3.org/2000/svg">
<path d="M12.2533 0.666748C8.83518 0.676498 5.55132 1.99863 3.08 4.36008V2.00008C3.08 1.64646 2.93952 1.30732 2.68947 1.05727C2.43942 0.807224 2.10029 0.666748 1.74666 0.666748C1.39304 0.666748 1.0539 0.807224 0.803854 1.05727C0.553806 1.30732 0.41333 1.64646 0.41333 2.00008V8.00008C0.41333 8.3537 0.553806 8.69284 0.803854 8.94289C1.0539 9.19294 1.39304 9.33341 1.74666 9.33341H7.74666C8.10029 9.33341 8.43942 9.19294 8.68947 8.94289C8.93952 8.69284 9.08 8.3537 9.08 8.00008C9.08 7.64646 8.93952 7.30732 8.68947 7.05727C8.43942 6.80722 8.10029 6.66675 7.74666 6.66675H4.54666C5.76227 5.38276 7.278 4.4211 8.9575 3.86827C10.637 3.31543 12.4276 3.18878 14.1682 3.49968C15.9088 3.81059 17.5448 4.54932 18.929 5.6494C20.3133 6.74949 21.4024 8.17642 22.0983 9.80185C22.7942 11.4273 23.0752 13.2002 22.9159 14.9612C22.7565 16.7221 22.162 18.4159 21.1857 19.89C20.2093 21.3642 18.8819 22.5725 17.3227 23.4063C15.7635 24.2401 14.0215 24.6733 12.2533 24.6667C11.8997 24.6667 11.5606 24.8072 11.3105 25.0573C11.0605 25.3073 10.92 25.6465 10.92 26.0001C10.92 26.3537 11.0605 26.6928 11.3105 26.9429C11.5606 27.1929 11.8997 27.3334 12.2533 27.3334C15.7895 27.3334 19.1809 25.9287 21.6814 23.4282C24.1819 20.9277 25.5867 17.5363 25.5867 14.0001C25.5867 10.4639 24.1819 7.07248 21.6814 4.57199C19.1809 2.07151 15.7895 0.666748 12.2533 0.666748V0.666748ZM12.2533 8.66675C11.8997 8.66675 11.5606 8.80722 11.3105 9.05727C11.0605 9.30732 10.92 9.64646 10.92 10.0001V14.0001C10.92 14.3537 11.0605 14.6928 11.3105 14.9429C11.5606 15.1929 11.8997 15.3334 12.2533 15.3334H14.92C15.2736 15.3334 15.6128 15.1929 15.8628 14.9429C16.1129 14.6928 16.2533 14.3537 16.2533 14.0001C16.2533 13.6465 16.1129 13.3073 15.8628 13.0573C15.6128 12.8072 15.2736 12.6667 14.92 12.6667H13.5867V10.0001C13.5867 9.64646 13.4462 9.30732 13.1961 9.05727C12.9461 8.80722 12.607 8.66675 12.2533 8.66675Z" fill="#101828"/>
</svg>
