<svg width="32" height="32" viewBox="0 0 32 32" fill="none" xmlns="http://www.w3.org/2000/svg">
<path d="M28.6533 13.5866L27.32 12.8532L15.32 6.18657H15.1733C15.0916 6.15201 15.0068 6.12522 14.92 6.10657H14.6667H14.4267C14.3356 6.12523 14.2463 6.15201 14.16 6.18657H14.0133L2.01333 12.8532C1.80814 12.9695 1.63746 13.1382 1.51871 13.342C1.39997 13.5457 1.3374 13.7774 1.3374 14.0132C1.3374 14.2491 1.39997 14.4807 1.51871 14.6845C1.63746 14.8883 1.80814 15.0569 2.01333 15.1732L5.33333 17.0132V23.3332C5.33333 24.3941 5.75476 25.4115 6.50491 26.1617C7.25505 26.9118 8.27247 27.3332 9.33333 27.3332H20C21.0609 27.3332 22.0783 26.9118 22.8284 26.1617C23.5786 25.4115 24 24.3941 24 23.3332V17.0132L26.6667 15.5199V19.3332C26.6667 19.6869 26.8071 20.026 27.0572 20.276C27.3072 20.5261 27.6464 20.6666 28 20.6666C28.3536 20.6666 28.6928 20.5261 28.9428 20.276C29.1929 20.026 29.3333 19.6869 29.3333 19.3332V14.7466C29.3329 14.5103 29.2697 14.2784 29.1503 14.0746C29.0308 13.8707 28.8593 13.7023 28.6533 13.5866V13.5866ZM21.3333 23.3332C21.3333 23.6869 21.1929 24.026 20.9428 24.276C20.6928 24.5261 20.3536 24.6666 20 24.6666H9.33333C8.97971 24.6666 8.64057 24.5261 8.39052 24.276C8.14048 24.026 8 23.6869 8 23.3332V18.4932L14.0133 21.8266L14.2133 21.9066H14.3333C14.444 21.9205 14.556 21.9205 14.6667 21.9066C14.7773 21.9205 14.8893 21.9205 15 21.9066H15.12C15.1908 21.8916 15.2585 21.8646 15.32 21.8266L21.3333 18.4932V23.3332ZM14.6667 19.1466L5.41333 13.9999L14.6667 8.85323L23.92 13.9999L14.6667 19.1466Z" fill="#101828"/>
</svg>
