<svg width="20" height="20" viewBox="0 0 20 20" fill="none" xmlns="http://www.w3.org/2000/svg">
<path d="M3.33325 10C3.33325 10.221 3.42105 10.433 3.57733 10.5893C3.73361 10.7456 3.94557 10.8334 4.16659 10.8334H10.4916L8.57492 12.7417C8.49681 12.8192 8.43482 12.9113 8.39251 13.0129C8.3502 13.1144 8.32842 13.2233 8.32842 13.3334C8.32842 13.4434 8.3502 13.5523 8.39251 13.6538C8.43482 13.7554 8.49681 13.8476 8.57492 13.925C8.65239 14.0031 8.74456 14.0651 8.8461 14.1074C8.94765 14.1497 9.05658 14.1715 9.16659 14.1715C9.2766 14.1715 9.38552 14.1497 9.48707 14.1074C9.58862 14.0651 9.68078 14.0031 9.75825 13.925L13.0916 10.5917C13.1675 10.5124 13.2269 10.419 13.2666 10.3167C13.3499 10.1138 13.3499 9.88624 13.2666 9.68335C13.2269 9.58106 13.1675 9.48761 13.0916 9.40835L9.75825 6.07502C9.68055 5.99732 9.58831 5.93569 9.48679 5.89364C9.38527 5.85159 9.27647 5.82994 9.16659 5.82994C9.0567 5.82994 8.9479 5.85159 8.84638 5.89364C8.74486 5.93569 8.65262 5.99732 8.57492 6.07502C8.49722 6.15272 8.43559 6.24496 8.39354 6.34648C8.35148 6.448 8.32984 6.5568 8.32984 6.66669C8.32984 6.77657 8.35148 6.88538 8.39354 6.98689C8.43559 7.08841 8.49722 7.18065 8.57492 7.25835L10.4916 9.16669H4.16659C3.94557 9.16669 3.73361 9.25448 3.57733 9.41076C3.42105 9.56704 3.33325 9.77901 3.33325 10V10ZM14.1666 1.66669H5.83325C5.17021 1.66669 4.53433 1.93008 4.06549 2.39892C3.59664 2.86776 3.33325 3.50365 3.33325 4.16669V6.66669C3.33325 6.8877 3.42105 7.09966 3.57733 7.25594C3.73361 7.41222 3.94557 7.50002 4.16659 7.50002C4.3876 7.50002 4.59956 7.41222 4.75584 7.25594C4.91212 7.09966 4.99992 6.8877 4.99992 6.66669V4.16669C4.99992 3.94567 5.08772 3.73371 5.244 3.57743C5.40028 3.42115 5.61224 3.33335 5.83325 3.33335H14.1666C14.3876 3.33335 14.5996 3.42115 14.7558 3.57743C14.9121 3.73371 14.9999 3.94567 14.9999 4.16669V15.8334C14.9999 16.0544 14.9121 16.2663 14.7558 16.4226C14.5996 16.5789 14.3876 16.6667 14.1666 16.6667H5.83325C5.61224 16.6667 5.40028 16.5789 5.244 16.4226C5.08772 16.2663 4.99992 16.0544 4.99992 15.8334V13.3334C4.99992 13.1123 4.91212 12.9004 4.75584 12.7441C4.59956 12.5878 4.3876 12.5 4.16659 12.5C3.94557 12.5 3.73361 12.5878 3.57733 12.7441C3.42105 12.9004 3.33325 13.1123 3.33325 13.3334V15.8334C3.33325 16.4964 3.59664 17.1323 4.06549 17.6011C4.53433 18.07 5.17021 18.3334 5.83325 18.3334H14.1666C14.8296 18.3334 15.4655 18.07 15.9344 17.6011C16.4032 17.1323 16.6666 16.4964 16.6666 15.8334V4.16669C16.6666 3.50365 16.4032 2.86776 15.9344 2.39892C15.4655 1.93008 14.8296 1.66669 14.1666 1.66669Z" fill="#D82D22"/>
</svg>
