<svg width="80" height="80" viewBox="0 0 80 80" fill="none" xmlns="http://www.w3.org/2000/svg">
<rect width="80" height="80" rx="5.33333" fill="#E76F51"/>
<path d="M57.875 39.1877H51.375V26.1877C51.3736 25.92 51.3061 25.6568 51.1786 25.4215C51.051 25.1862 50.8673 24.9861 50.6437 24.8389L40.8937 18.3389C40.6284 18.1642 40.3177 18.071 40 18.071C39.6823 18.071 39.3716 18.1642 39.1062 18.3389L29.3562 24.8389C29.1327 24.9861 28.949 25.1862 28.8214 25.4215C28.6939 25.6568 28.6264 25.92 28.625 26.1877V39.1877H22.125C20.8321 39.1877 19.5921 39.7013 18.6779 40.6155C17.7636 41.5297 17.25 42.7697 17.25 44.0627V60.3127C17.25 60.7436 17.4212 61.157 17.726 61.4617C18.0307 61.7664 18.444 61.9377 18.875 61.9377H61.125C61.556 61.9377 61.9693 61.7664 62.274 61.4617C62.5788 61.157 62.75 60.7436 62.75 60.3127V44.0627C62.75 42.7697 62.2364 41.5297 61.3221 40.6155C60.4079 39.7013 59.1679 39.1877 57.875 39.1877ZM20.5 44.0627C20.5 43.6317 20.6712 43.2183 20.976 42.9136C21.2807 42.6089 21.694 42.4377 22.125 42.4377H28.625V58.6877H20.5V44.0627ZM31.875 40.8127V27.0002L40 21.6377L48.125 27.0002V58.6877H44.875V44.0627C44.875 43.6317 44.7038 43.2183 44.399 42.9136C44.0943 42.6089 43.681 42.4377 43.25 42.4377H36.75C36.319 42.4377 35.9057 42.6089 35.601 42.9136C35.2962 43.2183 35.125 43.6317 35.125 44.0627V58.6877H31.875V40.8127ZM38.375 58.6877V45.6877H41.625V58.6877H38.375ZM59.5 58.6877H51.375V42.4377H57.875C58.306 42.4377 58.7193 42.6089 59.024 42.9136C59.3288 43.2183 59.5 43.6317 59.5 44.0627V58.6877Z" fill="white"/>
<path d="M36.75 31.0625H43.25C43.681 31.0625 44.0943 30.8913 44.399 30.5865C44.7038 30.2818 44.875 29.8685 44.875 29.4375C44.875 29.0065 44.7038 28.5932 44.399 28.2885C44.0943 27.9837 43.681 27.8125 43.25 27.8125H36.75C36.319 27.8125 35.9057 27.9837 35.601 28.2885C35.2962 28.5932 35.125 29.0065 35.125 29.4375C35.125 29.8685 35.2962 30.2818 35.601 30.5865C35.9057 30.8913 36.319 31.0625 36.75 31.0625Z" fill="white"/>
<path d="M36.75 37.5625H43.25C43.681 37.5625 44.0943 37.3913 44.399 37.0865C44.7038 36.7818 44.875 36.3685 44.875 35.9375C44.875 35.5065 44.7038 35.0932 44.399 34.7885C44.0943 34.4837 43.681 34.3125 43.25 34.3125H36.75C36.319 34.3125 35.9057 34.4837 35.601 34.7885C35.2962 35.0932 35.125 35.5065 35.125 35.9375C35.125 36.3685 35.2962 36.7818 35.601 37.0865C35.9057 37.3913 36.319 37.5625 36.75 37.5625Z" fill="white"/>
</svg>
