<svg width="80" height="80" viewBox="0 0 80 80" fill="none" xmlns="http://www.w3.org/2000/svg">
<rect width="80" height="80" rx="5.33333" fill="#F4A261"/>
<path d="M57.875 23.75H22.125C20.8321 23.75 19.5921 24.2636 18.6779 25.1779C17.7636 26.0921 17.25 27.3321 17.25 28.625V51.375C17.25 52.6679 17.7636 53.9079 18.6779 54.8221C19.5921 55.7364 20.8321 56.25 22.125 56.25H57.875C59.1679 56.25 60.4079 55.7364 61.3221 54.8221C62.2364 53.9079 62.75 52.6679 62.75 51.375V28.625C62.75 27.3321 62.2364 26.0921 61.3221 25.1779C60.4079 24.2636 59.1679 23.75 57.875 23.75ZM20.5 51.375V28.625C20.5 28.194 20.6712 27.7807 20.976 27.476C21.2807 27.1712 21.694 27 22.125 27H30.25V46.5C30.25 46.931 30.4212 47.3443 30.726 47.649C31.0307 47.9538 31.444 48.125 31.875 48.125C32.306 48.125 32.7193 47.9538 33.024 47.649C33.3288 47.3443 33.5 46.931 33.5 46.5V27H38.375V53H22.125C21.694 53 21.2807 52.8288 20.976 52.524C20.6712 52.2193 20.5 51.806 20.5 51.375ZM59.5 51.375C59.5 51.806 59.3288 52.2193 59.024 52.524C58.7193 52.8288 58.306 53 57.875 53H41.625V27H57.875C58.306 27 58.7193 27.1712 59.024 27.476C59.3288 27.7807 59.5 28.194 59.5 28.625V51.375Z" fill="white"/>
<path d="M54.625 31.875H46.5C46.069 31.875 45.6557 32.0462 45.351 32.351C45.0462 32.6557 44.875 33.069 44.875 33.5C44.875 33.931 45.0462 34.3443 45.351 34.649C45.6557 34.9538 46.069 35.125 46.5 35.125H54.625C55.056 35.125 55.4693 34.9538 55.774 34.649C56.0788 34.3443 56.25 33.931 56.25 33.5C56.25 33.069 56.0788 32.6557 55.774 32.351C55.4693 32.0462 55.056 31.875 54.625 31.875Z" fill="white"/>
<path d="M54.625 38.375H49.75C49.319 38.375 48.9057 38.5462 48.601 38.851C48.2962 39.1557 48.125 39.569 48.125 40C48.125 40.431 48.2962 40.8443 48.601 41.149C48.9057 41.4538 49.319 41.625 49.75 41.625H54.625C55.056 41.625 55.4693 41.4538 55.774 41.149C56.0788 40.8443 56.25 40.431 56.25 40C56.25 39.569 56.0788 39.1557 55.774 38.851C55.4693 38.5462 55.056 38.375 54.625 38.375Z" fill="white"/>
<path d="M54.625 44.875H46.5C46.069 44.875 45.6557 45.0462 45.351 45.351C45.0462 45.6557 44.875 46.069 44.875 46.5C44.875 46.931 45.0462 47.3443 45.351 47.649C45.6557 47.9538 46.069 48.125 46.5 48.125H54.625C55.056 48.125 55.4693 47.9538 55.774 47.649C56.0788 47.3443 56.25 46.931 56.25 46.5C56.25 46.069 56.0788 45.6557 55.774 45.351C55.4693 45.0462 55.056 44.875 54.625 44.875Z" fill="white"/>
</svg>
