<svg width="80" height="80" viewBox="0 0 80 80" fill="none" xmlns="http://www.w3.org/2000/svg">
<path d="M0 5.33334C0 2.38782 2.38781 0 5.33333 0H74.6667C77.6122 0 80 2.38781 80 5.33333V74.6667C80 77.6122 77.6122 80 74.6667 80H5.33334C2.38782 80 0 77.6122 0 74.6667V5.33334Z" fill="#457B9D"/>
<path d="M57.8748 35.125C57.8605 31.6621 56.8406 28.2779 54.9391 25.3837C53.0376 22.4896 50.3364 20.2101 47.1637 18.8223C43.9911 17.4344 40.4836 16.9981 37.0676 17.5662C33.6516 18.1343 30.4741 19.6824 27.9214 22.0224C25.3687 24.3623 23.5507 27.3934 22.6882 30.7472C21.8258 34.101 21.9561 37.6331 23.0633 40.9143C24.1705 44.1954 26.207 47.0843 28.9252 49.2298C31.6434 51.3753 34.9263 52.6851 38.3748 53V54.625H32.1998C31.8744 54.6246 31.5563 54.7221 31.2869 54.9046C31.0174 55.0871 30.809 55.3463 30.6886 55.6487L28.7386 60.5237C28.6404 60.7703 28.6041 61.0373 28.6329 61.3012C28.6617 61.5651 28.7547 61.818 28.9038 62.0376C29.0529 62.2573 29.2536 62.4371 29.4882 62.5612C29.7229 62.6854 29.9844 62.7502 30.2498 62.75H49.7498C50.0153 62.7502 50.2768 62.6854 50.5115 62.5612C50.7461 62.4371 50.9468 62.2573 51.0959 62.0376C51.245 61.818 51.338 61.5651 51.3668 61.3012C51.3956 61.0373 51.3593 60.7703 51.2611 60.5237L49.3111 55.6487C49.1907 55.3463 48.9822 55.0871 48.7128 54.9046C48.4434 54.7221 48.1253 54.6246 47.7998 54.625H41.6248V53C46.0786 52.5934 50.2181 50.5322 53.2264 47.223C56.2348 43.9138 57.8934 39.5971 57.8748 35.125ZM53.2761 29.0312C54.1653 30.9396 54.6257 33.0196 54.6248 35.125C54.6167 36.4599 54.4309 37.7878 54.0723 39.0737C51.3261 37.8712 49.3761 35.9212 49.1973 34.7025C49.0186 33.4837 49.1973 30.4287 53.2761 29.0312ZM35.4011 48.8562C35.4011 48.8562 35.4011 48.9375 35.4011 48.97C32.6037 48.0479 30.1499 46.3027 28.3609 43.9629C26.572 41.623 25.5312 38.7975 25.3748 35.8562C28.0643 34.2422 30.9121 32.9081 33.8736 31.875C35.3686 31.5175 35.7098 31.5825 35.7911 31.615C36.3111 31.9887 36.4573 34.28 35.3848 35.9212C34.9398 36.5852 34.3511 37.1406 33.6623 37.5462C33.1551 37.7701 32.7197 38.13 32.4042 38.586C32.0888 39.042 31.9055 39.5763 31.8748 40.13C32.0211 41.755 33.6298 42.3887 34.7998 42.8112C35.6272 42.9984 36.3798 43.4284 36.9611 44.0462C37.1236 44.355 37.5136 45.59 35.3848 48.8562H35.4011ZM46.7761 57.875L47.4261 59.5H32.8011L33.4511 57.875H46.7761ZM39.9998 49.75C39.5611 49.75 39.1223 49.75 38.6836 49.75C40.4548 46.7275 40.8123 44.355 39.7886 42.5187C38.8925 41.1925 37.5385 40.2436 35.9861 39.8537C36.8322 39.2819 37.5559 38.5471 38.1148 37.6925C39.8536 35.0112 40.0486 30.7212 37.7086 28.9987C37.0219 28.5961 36.2534 28.3535 35.46 28.2888C34.6667 28.2241 33.8689 28.339 33.1261 28.625C30.5541 29.4452 28.0758 30.5346 25.7323 31.875C26.3371 29.1649 27.7009 26.6829 29.6642 24.7194C31.6276 22.7558 34.1094 21.3917 36.8194 20.7866C39.5294 20.1816 42.3557 20.3605 44.9678 21.3025C47.5799 22.2445 49.8698 23.9107 51.5698 26.1062C49.7334 26.7213 48.1703 27.9602 47.1521 29.6077C46.134 31.2552 45.7249 33.2073 45.9961 35.125C46.3536 38.0012 49.5223 40.6662 52.8536 42.1287C51.5942 44.4373 49.7356 46.3637 47.4736 47.7049C45.2115 49.0461 42.6296 49.7526 39.9998 49.75Z" fill="white"/>
</svg>
