<svg width="80" height="80" viewBox="0 0 80 80" fill="none" xmlns="http://www.w3.org/2000/svg">
<rect width="80" height="80" rx="5.33333" fill="#2A9D8F"/>
<path d="M54.3813 25.1475L55.5513 22.8075H56.64C56.9358 23.458 57.4378 23.9929 58.0683 24.3293C58.6988 24.6658 59.4226 24.785 60.1277 24.6687C60.8328 24.5523 61.4799 24.2068 61.9688 23.6856C62.4577 23.1644 62.7612 22.4965 62.8323 21.7854C62.9034 21.0744 62.7382 20.3597 62.3621 19.752C61.9861 19.1442 61.4203 18.6774 60.7522 18.4237C60.0841 18.17 59.351 18.1436 58.6664 18.3486C57.9818 18.5535 57.3838 18.9784 56.965 19.5575H54.625C54.3249 19.5584 54.0309 19.6424 53.7757 19.8001C53.5204 19.9579 53.3138 20.1832 53.1787 20.4512L51.9925 22.8075H50.1725C47.1298 20.6604 43.4892 19.5241 39.7654 19.5591C36.0417 19.5941 32.4231 20.7986 29.4212 23.0025L26.4475 20.0287C26.161 19.7437 25.7787 19.5757 25.375 19.5575H23.2137C22.8374 18.9837 22.2892 18.5438 21.6475 18.3007C21.0059 18.0577 20.3038 18.0239 19.6418 18.2043C18.9798 18.3847 18.3918 18.7699 17.9622 19.3049C17.5326 19.8399 17.2833 20.4971 17.25 21.1825C17.2572 21.8917 17.4963 22.5792 17.9308 23.1399C18.3652 23.7006 18.9711 24.1037 19.6561 24.2879C20.3411 24.472 21.0675 24.427 21.7246 24.1597C22.3816 23.8924 22.9331 23.4175 23.295 22.8075H24.7088L27 25.1475C25.2132 27.036 23.8599 29.2916 23.0344 31.7569C22.2089 34.2222 21.9312 36.8379 22.2205 39.4215C22.5098 42.0052 23.3592 44.4947 24.7095 46.7164C26.0598 48.938 27.8785 50.8384 30.0387 52.285L29.0312 55.3075H26.4637C26.1019 54.6974 25.5503 54.2225 24.8933 53.9552C24.2363 53.6879 23.5099 53.6429 22.8249 53.8271C22.1399 54.0112 21.5339 54.4144 21.0995 54.9751C20.6651 55.5358 20.426 56.2232 20.4188 56.9325C20.426 57.6417 20.6651 58.3292 21.0995 58.8899C21.5339 59.4506 22.1399 59.8537 22.8249 60.0379C23.5099 60.222 24.2363 60.177 24.8933 59.9097C25.5503 59.6424 26.1019 59.1675 26.4637 58.5575H30.25C30.6064 58.5749 30.9586 58.4746 31.2523 58.2719C31.546 58.0693 31.7648 57.7756 31.875 57.4362L33.0612 53.8612C37.3076 55.695 42.1042 55.7884 46.4188 54.1212L52.9188 60.6212C53.3729 61.076 53.9126 61.4364 54.5066 61.6818C55.1006 61.9273 55.7373 62.0528 56.38 62.0512C57.6702 62.0544 58.909 61.546 59.825 60.6375L60.1175 60.345C61.0255 59.4316 61.5351 58.196 61.5351 56.9081C61.5351 55.6202 61.0255 54.3846 60.1175 53.4712L54.5762 47.8487C56.918 44.6257 58.1093 40.7096 57.959 36.7285C57.8087 32.7474 56.3256 28.9322 53.7475 25.895C54.0306 25.717 54.252 25.4559 54.3813 25.1475ZM57.6313 58.0537L57.3387 58.3462C57.0361 58.6464 56.6276 58.8157 56.2012 58.8175C55.9874 58.8187 55.7754 58.7777 55.5774 58.6968C55.3794 58.616 55.1993 58.4968 55.0475 58.3462L49.3438 52.5937C50.3937 51.9432 51.3739 51.1863 52.2687 50.335L57.6475 55.7787C57.9409 56.0867 58.1019 56.4975 58.0958 56.9228C58.0898 57.3482 57.9171 57.7542 57.615 58.0537H57.6313ZM40 52.0575C37.1074 52.0575 34.2799 51.1997 31.8748 49.5927C29.4697 47.9857 27.5952 45.7016 26.4883 43.0292C25.3813 40.3568 25.0917 37.4162 25.656 34.5793C26.2203 31.7423 27.6132 29.1364 29.6586 27.091C31.7039 25.0457 34.3098 23.6528 37.1468 23.0885C39.9838 22.5242 42.9244 22.8138 45.5967 23.9207C48.2691 25.0277 50.5532 26.9022 52.1602 29.3072C53.7673 31.7123 54.625 34.5399 54.625 37.4325C54.625 41.3113 53.0842 45.0312 50.3414 47.7739C47.5987 50.5166 43.8788 52.0575 40 52.0575Z" fill="white"/>
<path d="M40 26.0575C37.7502 26.0575 35.551 26.7246 33.6804 27.9745C31.8098 29.2244 30.3518 31.001 29.4909 33.0795C28.6299 35.158 28.4047 37.4451 28.8436 39.6516C29.2825 41.8582 30.3658 43.885 31.9567 45.4758C33.5475 47.0667 35.5743 48.15 37.7809 48.5889C39.9874 49.0278 42.2745 48.8026 44.353 47.9416C46.4315 47.0807 48.2081 45.6227 49.458 43.7521C50.7079 41.8815 51.375 39.6823 51.375 37.4325C51.375 34.4157 50.1766 31.5224 48.0433 29.3892C45.9101 27.2559 43.0168 26.0575 40 26.0575ZM40 45.5575C38.393 45.5575 36.8221 45.081 35.486 44.1882C34.1498 43.2954 33.1084 42.0264 32.4935 40.5418C31.8785 39.0571 31.7176 37.4235 32.0311 35.8474C32.3446 34.2713 33.1185 32.8236 34.2548 31.6873C35.3911 30.551 36.8388 29.7771 38.4149 29.4636C39.991 29.1501 41.6247 29.311 43.1093 29.926C44.594 30.5409 45.8629 31.5823 46.7557 32.9185C47.6485 34.2546 48.125 35.8255 48.125 37.4325C48.125 39.5874 47.269 41.654 45.7452 43.1777C44.2215 44.7015 42.1549 45.5575 40 45.5575Z" fill="white"/>
</svg>
