<svg width="80" height="80" viewBox="0 0 80 80" fill="none" xmlns="http://www.w3.org/2000/svg">
<rect width="80" height="80" rx="5.33333" fill="#0077B6"/>
<path d="M57.8747 25.375H57.2085L54.4622 19.785C54.3282 19.5115 54.12 19.2812 53.8615 19.1203C53.6029 18.9594 53.3043 18.8744 52.9997 18.875C52.7013 18.8744 52.4085 18.9559 52.1534 19.1107C51.8983 19.2655 51.6907 19.4876 51.5535 19.7525L48.661 25.375H22.1247C20.8072 25.4049 19.5551 25.9548 18.6417 26.9047C17.7283 27.8546 17.2279 29.1274 17.2497 30.445V52.805C17.2279 54.1226 17.7283 55.3954 18.6417 56.3453C19.5551 57.2952 20.8072 57.8451 22.1247 57.875H57.8747C59.1922 57.8451 60.4443 57.2952 61.3577 56.3453C62.2711 55.3954 62.7715 54.1226 62.7497 52.805V30.445C62.7715 29.1274 62.2711 27.8546 61.3577 26.9047C60.4443 25.9548 59.1922 25.4049 57.8747 25.375ZM59.4997 52.805C59.522 53.2609 59.3641 53.7074 59.06 54.0479C58.756 54.3884 58.3303 54.5957 57.8747 54.625H22.1247C21.6692 54.5957 21.2434 54.3884 20.9394 54.0479C20.6354 53.7074 20.4774 53.2609 20.4997 52.805V30.445C20.4774 29.9891 20.6354 29.5426 20.9394 29.2021C21.2434 28.8616 21.6692 28.6543 22.1247 28.625H49.6522C49.9506 28.6256 50.2434 28.5441 50.4985 28.3893C50.7536 28.2345 50.9612 28.0125 51.0985 27.7475L52.9997 24.1075L54.771 27.715C54.9062 27.991 55.1169 28.223 55.3786 28.3841C55.6403 28.5451 55.9424 28.6287 56.2497 28.625H57.8747C58.3303 28.6543 58.756 28.8616 59.06 29.2021C59.3641 29.5426 59.522 29.9891 59.4997 30.445V52.805Z" fill="white"/>
<path d="M56.25 38.3749C56.25 37.0819 55.7364 35.842 54.8221 34.9277C53.9079 34.0135 52.6679 33.4999 51.375 33.4999C50.0821 33.4999 48.8421 34.0135 47.9279 34.9277C47.0136 35.842 46.5 37.0819 46.5 38.3749C46.5043 39.1012 46.6709 39.8174 46.9875 40.4711C45.8749 40.1962 44.7367 40.0383 43.5912 39.9999C44.2313 39.3027 44.6545 38.4342 44.8093 37.5005C44.9642 36.5668 44.8438 35.6082 44.463 34.7418C44.0822 33.8753 43.4575 33.1384 42.6649 32.621C41.8724 32.1036 40.9464 31.8281 40 31.8281C39.0535 31.8281 38.1276 32.1036 37.335 32.621C36.5425 33.1384 35.9178 33.8753 35.537 34.7418C35.1562 35.6082 35.0358 36.5668 35.1907 37.5005C35.3455 38.4342 35.7687 39.3027 36.4087 39.9999C35.2645 40.0277 34.1263 40.1747 33.0125 40.4386C33.3245 39.7948 33.4909 39.0902 33.5 38.3749C33.5037 37.463 33.2515 36.5683 32.7722 35.7926C32.2928 35.0168 31.6055 34.391 30.7883 33.9864C29.971 33.5817 29.0567 33.4144 28.1492 33.5034C27.2416 33.5925 26.3772 33.9342 25.6542 34.49C24.9312 35.0457 24.3785 35.7931 24.059 36.6472C23.7395 37.5013 23.666 38.4279 23.8468 39.3217C24.0276 40.2155 24.4555 41.0407 25.0818 41.7035C25.7082 42.3663 26.5078 42.8401 27.39 43.0711C26.3107 43.8296 25.4208 44.8268 24.7895 45.9851C24.1582 47.1434 23.8025 48.4317 23.75 49.7499C23.75 50.1809 23.9212 50.5942 24.226 50.8989C24.5307 51.2037 24.944 51.3749 25.375 51.3749C25.806 51.3749 26.2193 51.2037 26.524 50.8989C26.8288 50.5942 27 50.1809 27 49.7499C27 46.2236 31.615 43.2499 37.075 43.2499H42.925C48.385 43.2499 53 46.2236 53 49.7499C53 50.1809 53.1712 50.5942 53.476 50.8989C53.7807 51.2037 54.194 51.3749 54.625 51.3749C55.056 51.3749 55.4693 51.2037 55.774 50.8989C56.0788 50.5942 56.25 50.1809 56.25 49.7499C56.1975 48.4317 55.8418 47.1434 55.2105 45.9851C54.5792 44.8268 53.6893 43.8296 52.61 43.0711C53.6495 42.7989 54.5699 42.1909 55.2282 41.3416C55.8864 40.4924 56.2457 39.4494 56.25 38.3749ZM28.625 36.7499C28.9464 36.7499 29.2606 36.8452 29.5278 37.0237C29.795 37.2023 30.0033 37.4561 30.1263 37.753C30.2493 38.0499 30.2815 38.3767 30.2188 38.6919C30.1561 39.0071 30.0013 39.2967 29.774 39.5239C29.5468 39.7512 29.2572 39.9059 28.942 39.9686C28.6268 40.0314 28.3001 39.9992 28.0031 39.8762C27.7062 39.7532 27.4524 39.5449 27.2739 39.2777C27.0953 39.0104 27 38.6963 27 38.3749C27 37.9439 27.1712 37.5306 27.476 37.2258C27.7807 36.9211 28.194 36.7499 28.625 36.7499ZM40 35.1249C40.3214 35.1249 40.6356 35.2202 40.9028 35.3987C41.17 35.5773 41.3783 35.8311 41.5013 36.128C41.6243 36.4249 41.6565 36.7517 41.5938 37.0669C41.5311 37.3821 41.3763 37.6717 41.149 37.8989C40.9218 38.1262 40.6322 38.2809 40.317 38.3436C40.0018 38.4064 39.6751 38.3742 39.3781 38.2512C39.0812 38.1282 38.8274 37.9199 38.6489 37.6527C38.4703 37.3854 38.375 37.0713 38.375 36.7499C38.375 36.3189 38.5462 35.9056 38.851 35.6008C39.1557 35.2961 39.569 35.1249 40 35.1249ZM51.375 39.9999C51.0536 39.9999 50.7394 39.9046 50.4722 39.726C50.205 39.5475 49.9967 39.2937 49.8737 38.9967C49.7507 38.6998 49.7185 38.3731 49.7812 38.0579C49.8439 37.7426 49.9987 37.4531 50.226 37.2258C50.4532 36.9986 50.7428 36.8438 51.058 36.7811C51.3732 36.7184 51.6999 36.7506 51.9969 36.8736C52.2938 36.9966 52.5476 37.2048 52.7261 37.4721C52.9047 37.7393 53 38.0535 53 38.3749C53 38.8059 52.8288 39.2192 52.524 39.5239C52.2193 39.8287 51.806 39.9999 51.375 39.9999Z" fill="white"/>
</svg>
