<svg width="80" height="80" viewBox="0 0 80 80" fill="none" xmlns="http://www.w3.org/2000/svg">
<rect width="80" height="80" rx="5.33333" fill="#219EBC" fill-opacity="0.921569"/>
<path d="M57.875 62.75H22.125C20.8321 62.75 19.5921 62.2364 18.6779 61.3221C17.7636 60.4079 17.25 59.1679 17.25 57.875V22.125C17.25 20.8321 17.7636 19.5921 18.6779 18.6779C19.5921 17.7636 20.8321 17.25 22.125 17.25H57.875C59.1679 17.25 60.4079 17.7636 61.3221 18.6779C62.2364 19.5921 62.75 20.8321 62.75 22.125V57.875C62.75 59.1679 62.2364 60.4079 61.3221 61.3221C60.4079 62.2364 59.1679 62.75 57.875 62.75ZM22.125 20.5C21.694 20.5 21.2807 20.6712 20.976 20.976C20.6712 21.2807 20.5 21.694 20.5 22.125V57.875C20.5 58.306 20.6712 58.7193 20.976 59.024C21.2807 59.3288 21.694 59.5 22.125 59.5H57.875C58.306 59.5 58.7193 59.3288 59.024 59.024C59.3288 58.7193 59.5 58.306 59.5 57.875V22.125C59.5 21.694 59.3288 21.2807 59.024 20.976C58.7193 20.6712 58.306 20.5 57.875 20.5H22.125Z" fill="white"/>
<path d="M49.75 38.375H30.25C28.9571 38.375 27.7171 37.8614 26.8029 36.9471C25.8886 36.0329 25.375 34.7929 25.375 33.5V30.25C25.375 28.9571 25.8886 27.7171 26.8029 26.8029C27.7171 25.8886 28.9571 25.375 30.25 25.375H49.75C51.0429 25.375 52.2829 25.8886 53.1971 26.8029C54.1114 27.7171 54.625 28.9571 54.625 30.25V33.5C54.625 34.7929 54.1114 36.0329 53.1971 36.9471C52.2829 37.8614 51.0429 38.375 49.75 38.375ZM30.25 28.625C29.819 28.625 29.4057 28.7962 29.101 29.101C28.7962 29.4057 28.625 29.819 28.625 30.25V33.5C28.625 33.931 28.7962 34.3443 29.101 34.649C29.4057 34.9538 29.819 35.125 30.25 35.125H49.75C50.181 35.125 50.5943 34.9538 50.899 34.649C51.2038 34.3443 51.375 33.931 51.375 33.5V30.25C51.375 29.819 51.2038 29.4057 50.899 29.101C50.5943 28.7962 50.181 28.625 49.75 28.625H30.25Z" fill="white"/>
<path d="M36.7498 54.6249C36.536 54.6262 36.324 54.5852 36.126 54.5043C35.928 54.4234 35.7479 54.3043 35.5961 54.1537L25.8461 44.4037C25.5401 44.0977 25.3682 43.6827 25.3682 43.2499C25.3682 42.8172 25.5401 42.4022 25.8461 42.0962C26.1521 41.7902 26.5671 41.6183 26.9998 41.6183C27.4326 41.6183 27.8476 41.7902 28.1536 42.0962L37.9036 51.8462C38.0559 51.9973 38.1768 52.177 38.2593 52.375C38.3418 52.573 38.3842 52.7854 38.3842 52.9999C38.3842 53.2145 38.3418 53.4269 38.2593 53.6249C38.1768 53.8229 38.0559 54.0026 37.9036 54.1537C37.7517 54.3043 37.5716 54.4234 37.3737 54.5043C37.1757 54.5852 36.9637 54.6262 36.7498 54.6249Z" fill="white"/>
<path d="M26.9997 54.6249C26.7858 54.6262 26.5738 54.5852 26.3758 54.5043C26.1778 54.4234 25.9977 54.3043 25.8459 54.1537C25.6936 54.0026 25.5727 53.8229 25.4902 53.6249C25.4077 53.4269 25.3652 53.2145 25.3652 52.9999C25.3652 52.7854 25.4077 52.573 25.4902 52.375C25.5727 52.177 25.6936 51.9973 25.8459 51.8462L35.5959 42.0962C35.7474 41.9447 35.9273 41.8245 36.1253 41.7425C36.3232 41.6605 36.5354 41.6183 36.7497 41.6183C36.9639 41.6183 37.1761 41.6605 37.3741 41.7425C37.572 41.8245 37.7519 41.9447 37.9034 42.0962C38.0549 42.2477 38.1751 42.4276 38.2571 42.6255C38.3391 42.8235 38.3813 43.0357 38.3813 43.2499C38.3813 43.4642 38.3391 43.6764 38.2571 43.8743C38.1751 44.0723 38.0549 44.2522 37.9034 44.4037L28.1534 54.1537C28.0016 54.3043 27.8215 54.4234 27.6235 54.5043C27.4255 54.5852 27.2135 54.6262 26.9997 54.6249Z" fill="white"/>
<path d="M53 49.75H43.25C42.819 49.75 42.4057 49.5788 42.101 49.274C41.7962 48.9693 41.625 48.556 41.625 48.125C41.625 47.694 41.7962 47.2807 42.101 46.976C42.4057 46.6712 42.819 46.5 43.25 46.5H53C53.431 46.5 53.8443 46.6712 54.149 46.976C54.4538 47.2807 54.625 47.694 54.625 48.125C54.625 48.556 54.4538 48.9693 54.149 49.274C53.8443 49.5788 53.431 49.75 53 49.75Z" fill="white"/>
<path d="M48.1251 54.625C47.6948 54.619 47.2827 54.4507 46.9713 54.1537L46.7763 53.91C46.7148 53.8194 46.6656 53.721 46.6301 53.6175C46.5719 53.5273 46.528 53.4286 46.5001 53.325C46.4928 53.2168 46.4928 53.1082 46.5001 53C46.506 52.5697 46.6744 52.1576 46.9713 51.8462C47.1998 51.6208 47.49 51.468 47.8052 51.4073C48.1205 51.3465 48.4466 51.3805 48.7426 51.505C48.942 51.5823 49.1243 51.6983 49.2788 51.8462C49.5757 52.1576 49.7441 52.5697 49.7501 53C49.7573 53.1082 49.7573 53.2168 49.7501 53.325C49.7323 53.4268 49.6994 53.5254 49.6526 53.6175C49.617 53.721 49.5678 53.8194 49.5063 53.91C49.4463 53.9951 49.3812 54.0765 49.3113 54.1537C49.1568 54.3017 48.9745 54.4176 48.7751 54.495C48.5724 54.5911 48.3491 54.6357 48.1251 54.625Z" fill="white"/>
<path d="M48.1251 44.875C47.6941 44.875 47.2808 44.7038 46.9761 44.399C46.6713 44.0943 46.5001 43.681 46.5001 43.25C46.4922 43.1472 46.4922 43.044 46.5001 42.9412C46.5152 42.8336 46.5481 42.7292 46.5976 42.6325C46.6332 42.5289 46.6824 42.4306 46.7439 42.34L46.9389 42.0962C47.1674 41.8708 47.4576 41.718 47.7728 41.6573C48.088 41.5965 48.4142 41.6305 48.7101 41.755C48.9096 41.8323 49.0918 41.9483 49.2464 42.0962C49.3162 42.1735 49.3814 42.2549 49.4414 42.34C49.5029 42.4306 49.552 42.5289 49.5876 42.6325C49.6371 42.7292 49.67 42.8336 49.6851 42.9412C49.7149 43.0423 49.7366 43.1455 49.7501 43.25C49.7441 43.6802 49.5758 44.0923 49.2789 44.4037C49.1243 44.5517 48.9421 44.6676 48.7426 44.745C48.5472 44.8282 48.3375 44.8724 48.1251 44.875Z" fill="white"/>
</svg>
