<svg width="80" height="80" viewBox="0 0 80 80" fill="none" xmlns="http://www.w3.org/2000/svg">
<rect width="80" height="80" rx="6" fill="#3D5A80"/>
<path d="M62.7499 40C62.7382 35.1275 61.1624 30.3875 58.2545 26.4779C55.3466 22.5682 51.2603 19.6954 46.5972 18.2825C41.934 16.8695 36.9405 16.991 32.3516 18.6292C27.7627 20.2673 23.821 23.3354 21.1067 27.3819C18.3925 31.4284 17.0491 36.2394 17.2743 41.1067C17.4996 45.974 19.2816 50.6404 22.358 54.4188C25.4344 58.1973 29.6427 60.8883 34.3632 62.0956C39.0838 63.3028 44.0673 62.9626 48.5799 61.125C50.2936 62.5075 52.458 63.2074 54.6566 63.0902C56.8553 62.9729 58.9329 62.0468 60.4898 60.4899C62.0467 58.933 62.9729 56.8553 63.0901 54.6567C63.2074 52.458 62.5074 50.2936 61.1249 48.58C62.2156 45.8518 62.7674 42.9381 62.7499 40ZM54.6249 53.325C53.4949 51.8596 52.7366 50.1423 52.4149 48.32C52.8711 48.1985 53.3404 48.133 53.8124 48.125C54.7997 48.1199 55.771 48.3733 56.6299 48.8601C57.4887 49.3469 58.2052 50.05 58.7081 50.8996C59.2109 51.7491 59.4826 52.7155 59.4961 53.7027C59.5096 54.6898 59.2644 55.6632 58.7849 56.5262C57.1517 55.825 55.7211 54.7241 54.6249 53.325ZM58.6062 34.1337C54.1267 36.122 49.0739 36.3995 44.4037 34.9137C44.0972 34.7981 43.7986 34.6623 43.5099 34.5075C46.4122 31.1139 50.0085 28.382 54.0562 26.4962C56.1311 28.6623 57.6821 31.275 58.5899 34.1337H58.6062ZM39.8699 31.2575C39.2292 29.4442 39.1088 27.4878 39.5223 25.6096C39.9359 23.7314 40.8669 22.0065 42.2099 20.63C45.5157 21.0043 48.6708 22.2182 51.3749 24.1562C47.3948 26.3377 43.8303 29.2037 40.8449 32.6225C40.4482 32.2233 40.1189 31.7623 39.8699 31.2575ZM38.2449 20.5812C37.0781 22.3113 36.3449 24.2969 36.1073 26.3701C35.8697 28.4433 36.1348 30.5433 36.8799 32.4925C37.2834 33.4783 37.8801 34.3734 38.6349 35.125C38.1474 35.7425 37.6437 36.3762 37.1399 37.0425C36.2949 38.1637 35.5149 39.2687 34.8324 40.2925C30.9487 39.155 24.7087 41.2675 21.1174 44.7612C20.4299 42.0309 20.3418 39.184 20.8592 36.4163C21.3766 33.6487 22.4872 31.0259 24.1147 28.7283C25.7421 26.4307 27.8479 24.5128 30.2871 23.1064C32.7263 21.7 35.4411 20.8386 38.2449 20.5812ZM36.4737 59.0937C34.38 58.708 32.3647 57.9776 30.5099 56.9325C30.6724 56.4937 30.8674 56.0062 31.0787 55.405C32.3227 51.755 33.9059 48.2296 35.8074 44.875C36.7128 46.1407 37.3488 47.5787 37.6762 49.1C38.1622 50.7605 38.3062 52.5024 38.0995 54.2201C37.8928 55.9379 37.3397 57.5959 36.4737 59.0937ZM22.3849 48.3037C23.6729 46.7243 25.2962 45.4513 27.1372 44.5772C28.9782 43.7031 30.9907 43.2497 33.0287 43.25C30.998 46.7854 29.3112 50.5075 27.9912 54.365C27.8774 54.6412 27.7962 54.885 27.7149 55.1287C25.4492 53.282 23.6276 50.9495 22.3849 48.3037ZM39.9999 59.5C41.5485 56.0017 41.8469 52.0772 40.8449 48.385C40.3472 46.0153 39.2252 43.8217 37.5949 42.0312C38.2449 41.04 38.9437 40.0162 39.7399 38.9762C40.2437 38.31 40.7474 37.6762 41.2512 37.0587C41.904 37.4137 42.583 37.7179 43.2824 37.9687C45.5432 38.7603 47.9235 39.1561 50.3187 39.1387C53.3999 39.129 56.4505 38.5277 59.3049 37.3675C59.4276 38.2398 59.4928 39.1192 59.4999 40C59.5039 42.1102 59.1636 44.2069 58.4924 46.2075C57.0878 45.3343 55.4664 44.8726 53.8124 44.875C51.4434 44.8793 49.1726 45.8223 47.4974 47.4975C45.8222 49.1726 44.8792 51.4434 44.8749 53.8125C44.8726 55.4664 45.3342 57.0879 46.2074 58.4925C44.2068 59.1636 42.1101 59.5039 39.9999 59.5ZM48.1249 53.8125C48.1274 52.4696 48.6117 51.1722 49.4899 50.1562C49.988 52.0735 50.8789 53.8664 52.1062 55.4212C53.2407 56.8462 54.6498 58.0287 56.2499 58.8987C55.4939 59.2825 54.6602 59.4881 53.8124 59.5C52.304 59.5 50.8574 58.9008 49.7908 57.8342C48.7242 56.7675 48.1249 55.3209 48.1249 53.8125Z" fill="white"/>
</svg>
