<svg width="20" height="20" viewBox="0 0 20 20" fill="none" xmlns="http://www.w3.org/2000/svg">
<path d="M6.46474 8.96474C6.95919 8.96474 7.44254 8.81812 7.85366 8.54341C8.26479 8.26871 8.58522 7.87826 8.77444 7.42145C8.96366 6.96463 9.01317 6.46197 8.9167 5.97701C8.82024 5.49206 8.58214 5.0466 8.23251 4.69697C7.88287 4.34734 7.43742 4.10924 6.95246 4.01278C6.46751 3.91631 5.96485 3.96582 5.50803 4.15504C5.05122 4.34426 4.66077 4.66469 4.38606 5.07581C4.11136 5.48694 3.96474 5.97029 3.96474 6.46474C3.96546 7.12756 4.22909 7.76302 4.69777 8.23171C5.16646 8.70039 5.80192 8.96401 6.46474 8.96474V8.96474ZM6.46474 5.63141C6.62956 5.63141 6.79067 5.68028 6.92771 5.77185C7.06476 5.86342 7.17157 5.99356 7.23464 6.14584C7.29771 6.29811 7.31421 6.46566 7.28206 6.62731C7.24991 6.78896 7.17054 6.93745 7.054 7.05399C6.93745 7.17054 6.78897 7.2499 6.62731 7.28206C6.46566 7.31421 6.29811 7.29771 6.14584 7.23464C5.99356 7.17156 5.86342 7.06475 5.77185 6.92771C5.68028 6.79067 5.63141 6.62956 5.63141 6.46474C5.63155 6.24377 5.7194 6.03189 5.87565 5.87565C6.03189 5.7194 6.24377 5.63155 6.46474 5.63141V5.63141ZM13.5351 11.0351C13.0406 11.0351 12.5573 11.1817 12.1461 11.4564C11.735 11.7311 11.4146 12.1215 11.2254 12.5783C11.0361 13.0352 10.9866 13.5378 11.0831 14.0228C11.1796 14.5077 11.4177 14.9532 11.7673 15.3028C12.1169 15.6525 12.5624 15.8906 13.0473 15.987C13.5323 16.0835 14.0349 16.034 14.4918 15.8448C14.9486 15.6555 15.339 15.3351 15.6137 14.924C15.8884 14.5129 16.0351 14.0295 16.0351 13.5351C16.0343 12.8722 15.7707 12.2368 15.302 11.7681C14.8333 11.2994 14.1979 11.0358 13.5351 11.0351V11.0351ZM13.5351 14.3684C13.3702 14.3684 13.2091 14.3195 13.0721 14.2279C12.935 14.1364 12.8282 14.0062 12.7652 13.854C12.7021 13.7017 12.6856 13.5341 12.7177 13.3725C12.7499 13.2108 12.8293 13.0623 12.9458 12.9458C13.0623 12.8293 13.2108 12.7499 13.3725 12.7177C13.5341 12.6856 13.7017 12.7021 13.854 12.7652C14.0062 12.8282 14.1364 12.935 14.2279 13.0721C14.3195 13.2091 14.3684 13.3702 14.3684 13.5351C14.3682 13.756 14.2804 13.9679 14.1241 14.1241C13.9679 14.2804 13.756 14.3682 13.5351 14.3684V14.3684ZM16.4224 3.5774C16.345 3.5 16.2532 3.4386 16.1521 3.3967C16.051 3.35481 15.9426 3.33325 15.8332 3.33325C15.7238 3.33325 15.6154 3.35481 15.5143 3.3967C15.4132 3.4386 15.3214 3.5 15.244 3.5774L3.57735 15.2441C3.49918 15.3213 3.43704 15.4132 3.39452 15.5145C3.352 15.6158 3.32994 15.7245 3.32959 15.8343C3.32925 15.9442 3.35064 16.053 3.39252 16.1546C3.43441 16.2562 3.49597 16.3485 3.57365 16.4261C3.65134 16.5038 3.74362 16.5654 3.84519 16.6073C3.94676 16.6491 4.05561 16.6705 4.16547 16.6702C4.27533 16.6698 4.38404 16.6478 4.48535 16.6052C4.58665 16.5627 4.67854 16.5006 4.75573 16.4224L16.4224 4.75573C16.4998 4.67837 16.5612 4.58652 16.6031 4.48543C16.645 4.38434 16.6665 4.27599 16.6665 4.16656C16.6665 4.05714 16.645 3.94878 16.6031 3.84769C16.5612 3.7466 16.4998 3.65475 16.4224 3.5774V3.5774Z" fill="#101828"/>
</svg>
