<svg width="32" height="32" viewBox="0 0 32 32" fill="none" xmlns="http://www.w3.org/2000/svg">
<path d="M16.0001 2.66669C13.4141 2.6716 10.8853 3.42844 8.72179 4.84501C6.55825 6.26158 4.85334 8.27674 3.81473 10.645C2.77613 13.0134 2.44865 15.6326 2.87218 18.1837C3.29572 20.7348 4.45198 23.1077 6.20015 25.0134V25.0134C7.44871 26.3668 8.96407 27.4469 10.6507 28.1856C12.3374 28.9244 14.1588 29.3058 16.0001 29.3058C17.8415 29.3058 19.6629 28.9244 21.3496 28.1856C23.0362 27.4469 24.5516 26.3668 25.8001 25.0134V25.0134C27.5483 23.1077 28.7046 20.7348 29.1281 18.1837C29.5516 15.6326 29.2242 13.0134 28.1856 10.645C27.147 8.27674 25.442 6.26158 23.2785 4.84501C21.115 3.42844 18.5862 2.6716 16.0001 2.66669V2.66669ZM16.0001 26.6667C13.2381 26.6625 10.5854 25.5871 8.60015 23.6667C9.20287 22.1994 10.2282 20.9444 11.5458 20.0612C12.8634 19.178 14.4139 18.7064 16.0001 18.7064C17.5864 18.7064 19.1368 19.178 20.4545 20.0612C21.7721 20.9444 22.7974 22.1994 23.4001 23.6667C21.4149 25.5871 18.7622 26.6625 16.0001 26.6667ZM13.3335 13.3334C13.3335 12.8059 13.4899 12.2904 13.7829 11.8518C14.0759 11.4133 14.4924 11.0715 14.9797 10.8697C15.4669 10.6678 16.0031 10.615 16.5204 10.7179C17.0377 10.8208 17.5128 11.0748 17.8858 11.4477C18.2587 11.8207 18.5127 12.2958 18.6156 12.8131C18.7185 13.3304 18.6657 13.8666 18.4638 14.3538C18.262 14.8411 17.9202 15.2576 17.4817 15.5506C17.0431 15.8436 16.5276 16 16.0001 16C15.2929 16 14.6146 15.7191 14.1145 15.219C13.6144 14.7189 13.3335 14.0406 13.3335 13.3334ZM25.2135 21.3334C24.0222 19.2957 22.1887 17.7107 20.0001 16.8267C20.679 16.0569 21.1214 15.1076 21.2741 14.0926C21.4268 13.0776 21.2834 12.0402 20.8611 11.1047C20.4389 10.1692 19.7556 9.37543 18.8934 8.81864C18.0311 8.26185 17.0265 7.96569 16.0001 7.96569C14.9738 7.96569 13.9692 8.26185 13.1069 8.81864C12.2447 9.37543 11.5614 10.1692 11.1391 11.1047C10.7169 12.0402 10.5735 13.0776 10.7262 14.0926C10.8789 15.1076 11.3213 16.0569 12.0001 16.8267C9.81161 17.7107 7.97811 19.2957 6.78681 21.3334C5.83741 19.7162 5.33577 17.8753 5.33348 16C5.33348 13.171 6.45729 10.4579 8.45767 8.45755C10.4581 6.45716 13.1712 5.33335 16.0001 5.33335C18.8291 5.33335 21.5422 6.45716 23.5426 8.45755C25.543 10.4579 26.6668 13.171 26.6668 16C26.6645 17.8753 26.1629 19.7162 25.2135 21.3334V21.3334Z" fill="white"/>
</svg>
