<svg width="20" height="20" viewBox="0 0 20 20" fill="none" xmlns="http://www.w3.org/2000/svg">
<path d="M13.0918 10.5918C13.1676 10.5125 13.2271 10.419 13.2668 10.3168C13.3501 10.1139 13.3501 9.8863 13.2668 9.68342C13.2271 9.58113 13.1676 9.48767 13.0918 9.40842L10.5918 6.90842C10.4348 6.7515 10.222 6.66334 10.0001 6.66334C9.77817 6.66334 9.56534 6.7515 9.40842 6.90842C9.2515 7.06534 9.16334 7.27817 9.16334 7.50008C9.16334 7.722 9.2515 7.93483 9.40842 8.09175L10.4918 9.16675H7.50008C7.27907 9.16675 7.06711 9.25455 6.91083 9.41083C6.75455 9.56711 6.66675 9.77907 6.66675 10.0001C6.66675 10.2211 6.75455 10.4331 6.91083 10.5893C7.06711 10.7456 7.27907 10.8334 7.50008 10.8334H10.4918L9.40842 11.9084C9.33031 11.9859 9.26832 12.0781 9.22601 12.1796C9.1837 12.2812 9.16192 12.3901 9.16192 12.5001C9.16192 12.6101 9.1837 12.719 9.22601 12.8206C9.26832 12.9221 9.33031 13.0143 9.40842 13.0918C9.48589 13.1699 9.57805 13.2319 9.6796 13.2742C9.78115 13.3165 9.89008 13.3383 10.0001 13.3383C10.1101 13.3383 10.219 13.3165 10.3206 13.2742C10.4221 13.2319 10.5143 13.1699 10.5918 13.0918L13.0918 10.5918ZM18.3334 10.0001C18.3334 8.35191 17.8447 6.74074 16.929 5.37033C16.0133 3.99992 14.7118 2.93182 13.1891 2.30109C11.6664 1.67036 9.99084 1.50533 8.37433 1.82687C6.75782 2.14842 5.27297 2.94209 4.10753 4.10753C2.94209 5.27297 2.14842 6.75782 1.82687 8.37433C1.50533 9.99084 1.67036 11.6664 2.30109 13.1891C2.93182 14.7118 3.99992 16.0133 5.37033 16.929C6.74074 17.8447 8.35191 18.3334 10.0001 18.3334C12.2102 18.3334 14.3298 17.4554 15.8926 15.8926C17.4554 14.3298 18.3334 12.2102 18.3334 10.0001ZM3.33342 10.0001C3.33342 8.68154 3.72441 7.39261 4.45695 6.29628C5.1895 5.19996 6.23069 4.34547 7.44886 3.84089C8.66704 3.3363 10.0075 3.20428 11.3007 3.46152C12.5939 3.71875 13.7818 4.35369 14.7141 5.28604C15.6465 6.21839 16.2814 7.40628 16.5387 8.69948C16.7959 9.99269 16.6639 11.3331 16.1593 12.5513C15.6547 13.7695 14.8002 14.8107 13.7039 15.5432C12.6076 16.2758 11.3186 16.6668 10.0001 16.6668C8.23198 16.6668 6.53628 15.9644 5.28604 14.7141C4.0358 13.4639 3.33342 11.7682 3.33342 10.0001Z" fill="#101828"/>
</svg>
