<svg width="32" height="32" viewBox="0 0 32 32" fill="none" xmlns="http://www.w3.org/2000/svg">
<path d="M20.9468 16.9468C21.0681 16.8199 21.1633 16.6704 21.2268 16.5068C21.3601 16.1821 21.3601 15.818 21.2268 15.4934C21.1633 15.3298 21.0681 15.1802 20.9468 15.0534L16.9468 11.0534C16.6957 10.8023 16.3552 10.6613 16.0001 10.6613C15.645 10.6613 15.3045 10.8023 15.0534 11.0534C14.8023 11.3045 14.6613 11.645 14.6613 12.0001C14.6613 12.3552 14.8023 12.6957 15.0534 12.9468L16.7868 14.6668H12.0001C11.6465 14.6668 11.3073 14.8072 11.0573 15.0573C10.8072 15.3073 10.6668 15.6465 10.6668 16.0001C10.6668 16.3537 10.8072 16.6928 11.0573 16.9429C11.3073 17.1929 11.6465 17.3334 12.0001 17.3334H16.7868L15.0534 19.0534C14.9285 19.1774 14.8293 19.3248 14.7616 19.4873C14.6939 19.6498 14.659 19.8241 14.659 20.0001C14.659 20.1761 14.6939 20.3504 14.7616 20.5129C14.8293 20.6753 14.9285 20.8228 15.0534 20.9468C15.1774 21.0717 15.3248 21.1709 15.4873 21.2386C15.6498 21.3063 15.8241 21.3412 16.0001 21.3412C16.1761 21.3412 16.3504 21.3063 16.5129 21.2386C16.6753 21.1709 16.8228 21.0717 16.9468 20.9468L20.9468 16.9468ZM29.3334 16.0001C29.3334 13.363 28.5514 10.7851 27.0863 8.59248C25.6213 6.39983 23.5389 4.69086 21.1025 3.68169C18.6662 2.67253 15.9853 2.40848 13.3989 2.92295C10.8125 3.43742 8.4367 4.7073 6.572 6.572C4.7073 8.4367 3.43742 10.8125 2.92295 13.3989C2.40848 15.9853 2.67253 18.6662 3.68169 21.1025C4.69086 23.5389 6.39983 25.6213 8.59248 27.0863C10.7851 28.5514 13.363 29.3334 16.0001 29.3334C19.5363 29.3334 22.9277 27.9287 25.4282 25.4282C27.9287 22.9277 29.3334 19.5363 29.3334 16.0001V16.0001ZM5.33342 16.0001C5.33342 13.8904 5.95901 11.8281 7.13108 10.074C8.30315 8.31988 9.96905 6.95271 11.9181 6.14537C13.8672 5.33804 16.0119 5.1268 18.0811 5.53838C20.1502 5.94995 22.0508 6.96585 23.5426 8.45762C25.0343 9.94938 26.0502 11.85 26.4618 13.9191C26.8734 15.9883 26.6621 18.133 25.8548 20.082C25.0475 22.0311 23.6803 23.697 21.9262 24.8691C20.172 26.0412 18.1098 26.6668 16.0001 26.6668C13.1711 26.6668 10.458 25.5429 8.45762 23.5426C6.45723 21.5422 5.33342 18.8291 5.33342 16.0001V16.0001Z" fill="white"/>
</svg>
