<svg width="18" height="18" viewBox="0 0 18 18" fill="none" xmlns="http://www.w3.org/2000/svg">
<path d="M11.7825 9.5325C11.8508 9.46118 11.9043 9.37707 11.94 9.285C12.015 9.10241 12.015 8.8976 11.94 8.715C11.9043 8.62294 11.8508 8.53883 11.7825 8.4675L9.5325 6.2175C9.39128 6.07628 9.19973 5.99693 9 5.99693C8.80028 5.99693 8.60873 6.07628 8.4675 6.2175C8.32628 6.35873 8.24694 6.55028 8.24694 6.75C8.24694 6.94973 8.32628 7.14128 8.4675 7.2825L9.4425 8.25H6.75C6.55109 8.25 6.36033 8.32902 6.21967 8.46967C6.07902 8.61033 6 8.80109 6 9C6 9.19892 6.07902 9.38968 6.21967 9.53033C6.36033 9.67099 6.55109 9.75 6.75 9.75H9.4425L8.4675 10.7175C8.39721 10.7872 8.34141 10.8702 8.30334 10.9616C8.26526 11.053 8.24565 11.151 8.24565 11.25C8.24565 11.349 8.26526 11.447 8.30334 11.5384C8.34141 11.6298 8.39721 11.7128 8.4675 11.7825C8.53723 11.8528 8.62018 11.9086 8.71157 11.9467C8.80297 11.9847 8.90099 12.0044 9 12.0044C9.09901 12.0044 9.19704 11.9847 9.28844 11.9467C9.37983 11.9086 9.46278 11.8528 9.5325 11.7825L11.7825 9.5325ZM16.5 9C16.5 7.51664 16.0601 6.0666 15.236 4.83323C14.4119 3.59986 13.2406 2.63856 11.8701 2.07091C10.4997 1.50325 8.99168 1.35472 7.53683 1.64411C6.08197 1.9335 4.7456 2.64781 3.6967 3.6967C2.64781 4.7456 1.9335 6.08197 1.64411 7.53683C1.35472 8.99168 1.50325 10.4997 2.07091 11.8701C2.63856 13.2406 3.59986 14.4119 4.83323 15.236C6.0666 16.0601 7.51664 16.5 9 16.5C10.9891 16.5 12.8968 15.7098 14.3033 14.3033C15.7098 12.8968 16.5 10.9891 16.5 9V9ZM3 9C3 7.81332 3.3519 6.65328 4.01119 5.66658C4.67047 4.67989 5.60755 3.91085 6.7039 3.45673C7.80026 3.0026 9.00666 2.88378 10.1705 3.11529C11.3344 3.3468 12.4035 3.91825 13.2426 4.75736C14.0818 5.59648 14.6532 6.66558 14.8847 7.82946C15.1162 8.99335 14.9974 10.1997 14.5433 11.2961C14.0892 12.3925 13.3201 13.3295 12.3334 13.9888C11.3467 14.6481 10.1867 15 9 15C7.4087 15 5.88258 14.3679 4.75736 13.2426C3.63214 12.1174 3 10.5913 3 9V9Z" fill="#596275"/>
</svg>
