<svg width="32" height="32" viewBox="0 0 32 32" fill="none" xmlns="http://www.w3.org/2000/svg">
<path d="M23 7.94V29.4H9.00001V7.94C8.99897 7.6098 9.0797 7.28448 9.235 6.99308C9.3903 6.70168 9.61533 6.45326 9.89001 6.27L14.89 2.94C15.2187 2.72072 15.6049 2.6037 16 2.6037C16.3951 2.6037 16.7813 2.72072 17.11 2.94L22.11 6.27C22.3847 6.45326 22.6097 6.70168 22.765 6.99308C22.9203 7.28448 23.001 7.6098 23 7.94Z" fill="#2E7D32"/>
<path d="M27 15.4H23V29.4H27C27.7956 29.4 28.5587 29.0839 29.1213 28.5213C29.6839 27.9587 30 27.1956 30 26.4V18.4C30 17.6043 29.6839 16.8413 29.1213 16.2786C28.5587 15.716 27.7956 15.4 27 15.4Z" fill="#FF6F00"/>
<path d="M18 17.4H14C13.7348 17.4 13.4804 17.5053 13.2929 17.6929C13.1054 17.8804 13 18.1347 13 18.4V29.4H15V19.4H17V29.4H19V18.4C19 18.1347 18.8946 17.8804 18.7071 17.6929C18.5196 17.5053 18.2652 17.4 18 17.4Z" fill="#263238"/>
<path d="M18 10.4H14C13.7348 10.4 13.4804 10.2946 13.2929 10.1071C13.1054 9.91953 13 9.66518 13 9.39996C13 9.13475 13.1054 8.88039 13.2929 8.69286C13.4804 8.50532 13.7348 8.39996 14 8.39996H18C18.2652 8.39996 18.5196 8.50532 18.7071 8.69286C18.8946 8.88039 19 9.13475 19 9.39996C19 9.66518 18.8946 9.91953 18.7071 10.1071C18.5196 10.2946 18.2652 10.4 18 10.4Z" fill="#F5F5F5"/>
<path d="M18 14.4H14C13.7348 14.4 13.4804 14.2946 13.2929 14.1071C13.1054 13.9195 13 13.6652 13 13.4C13 13.1347 13.1054 12.8804 13.2929 12.6929C13.4804 12.5053 13.7348 12.4 14 12.4H18C18.2652 12.4 18.5196 12.5053 18.7071 12.6929C18.8946 12.8804 19 13.1347 19 13.4C19 13.6652 18.8946 13.9195 18.7071 14.1071C18.5196 14.2946 18.2652 14.4 18 14.4Z" fill="#F5F5F5"/>
<path d="M14.9 2.93998L9.9 6.26998C9.62347 6.45209 9.39648 6.7 9.2394 6.99148C9.08231 7.28295 9.00005 7.60887 9 7.93998V29.4H16V2.59998C15.6079 2.60304 15.2254 2.72127 14.9 2.93998Z" fill="#388E3C"/>
<path d="M14 17.4C13.7348 17.4 13.4804 17.5053 13.2929 17.6929C13.1054 17.8804 13 18.1347 13 18.4V29.4H15V19.4H16V17.4H14Z" fill="#37474F"/>
<path d="M14 8.39996C13.7348 8.39996 13.4804 8.50532 13.2929 8.69286C13.1054 8.88039 13 9.13475 13 9.39996C13 9.66518 13.1054 9.91953 13.2929 10.1071C13.4804 10.2946 13.7348 10.4 14 10.4H16V8.39996H14Z" fill="#F5F5F5"/>
<path d="M14 12.4C13.7348 12.4 13.4804 12.5053 13.2929 12.6929C13.1054 12.8804 13 13.1347 13 13.4C13 13.6652 13.1054 13.9195 13.2929 14.1071C13.4804 14.2946 13.7348 14.4 14 14.4H16V12.4H14Z" fill="#F5F5F5"/>
<path d="M5 15.4C4.20435 15.4 3.44129 15.716 2.87868 16.2786C2.31607 16.8413 2 17.6043 2 18.4V26.4C2 27.1956 2.31607 27.9587 2.87868 28.5213C3.44129 29.0839 4.20435 29.4 5 29.4H9V15.4H5Z" fill="#F9A825"/>
</svg>
