<svg width="64" height="64" viewBox="0 0 64 64" fill="none" xmlns="http://www.w3.org/2000/svg">
<path d="M46 15.8799V58.7999H18V15.8799C17.9979 15.2195 18.1594 14.5688 18.47 13.986C18.7806 13.4032 19.2307 12.9064 19.78 12.5399L29.78 5.87987C30.4373 5.44132 31.2098 5.20728 32 5.20728C32.7902 5.20728 33.5627 5.44132 34.22 5.87987L44.22 12.5399C44.7694 12.9064 45.2194 13.4032 45.53 13.986C45.8406 14.5688 46.0021 15.2195 46 15.8799Z" fill="#2E7D32"/>
<path d="M54 30.8H46V58.8H54C55.5913 58.8 57.1174 58.1679 58.2426 57.0427C59.3679 55.9175 60 54.3913 60 52.8V36.8C60 35.2087 59.3679 33.6826 58.2426 32.5574C57.1174 31.4322 55.5913 30.8 54 30.8Z" fill="#FF6F00"/>
<path d="M36 34.8H28C27.4696 34.8 26.9609 35.0108 26.5858 35.3858C26.2107 35.7609 26 36.2696 26 36.8V58.8H30V38.8H34V58.8H38V36.8C38 36.2696 37.7893 35.7609 37.4142 35.3858C37.0391 35.0108 36.5304 34.8 36 34.8Z" fill="#263238"/>
<path d="M36 20.8H28C27.4696 20.8 26.9609 20.5893 26.5858 20.2143C26.2107 19.8392 26 19.3305 26 18.8C26 18.2696 26.2107 17.7609 26.5858 17.3858C26.9609 17.0108 27.4696 16.8 28 16.8H36C36.5304 16.8 37.0391 17.0108 37.4142 17.3858C37.7893 17.7609 38 18.2696 38 18.8C38 19.3305 37.7893 19.8392 37.4142 20.2143C37.0391 20.5893 36.5304 20.8 36 20.8Z" fill="#F5F5F5"/>
<path d="M36 28.8H28C27.4696 28.8 26.9609 28.5893 26.5858 28.2143C26.2107 27.8392 26 27.3305 26 26.8C26 26.2696 26.2107 25.7609 26.5858 25.3858C26.9609 25.0108 27.4696 24.8 28 24.8H36C36.5304 24.8 37.0391 25.0108 37.4142 25.3858C37.7893 25.7609 38 26.2696 38 26.8C38 27.3305 37.7893 27.8392 37.4142 28.2143C37.0391 28.5893 36.5304 28.8 36 28.8Z" fill="#F5F5F5"/>
<path d="M29.8 5.87995L19.8 12.54C19.2469 12.9042 18.793 13.4 18.4788 13.983C18.1646 14.5659 18.0001 15.2177 18 15.88V58.7999H32V5.19995C31.2159 5.20607 30.4508 5.44254 29.8 5.87995Z" fill="#388E3C"/>
<path d="M28 34.8C27.4696 34.8 26.9609 35.0108 26.5858 35.3858C26.2107 35.7609 26 36.2696 26 36.8V58.8H30V38.8H32V34.8H28Z" fill="#37474F"/>
<path d="M28 16.8C27.4696 16.8 26.9609 17.0108 26.5858 17.3858C26.2107 17.7609 26 18.2696 26 18.8C26 19.3305 26.2107 19.8392 26.5858 20.2143C26.9609 20.5893 27.4696 20.8 28 20.8H32V16.8H28Z" fill="#F5F5F5"/>
<path d="M28 24.8C27.4696 24.8 26.9609 25.0108 26.5858 25.3858C26.2107 25.7609 26 26.2696 26 26.8C26 27.3305 26.2107 27.8392 26.5858 28.2143C26.9609 28.5893 27.4696 28.8 28 28.8H32V24.8H28Z" fill="#F5F5F5"/>
<path d="M10 30.8C8.4087 30.8 6.88258 31.4322 5.75736 32.5574C4.63214 33.6826 4 35.2087 4 36.8V52.8C4 54.3913 4.63214 55.9175 5.75736 57.0427C6.88258 58.1679 8.4087 58.8 10 58.8H18V30.8H10Z" fill="#F9A825"/>
</svg>
